<?xml version="1.0" encoding="UTF-8" standalone="no"?>
<svg
   version="1.2"
   viewBox="0 0 4044 1100"
   width="4044"
   height="1100"
   id="svg173"
   sodipodi:docname="WikiGrid Wordmark.svg"
   inkscape:version="1.2.2 (732a01da63, 2022-12-09)"
   xmlns:inkscape="http://www.inkscape.org/namespaces/inkscape"
   xmlns:sodipodi="http://sodipodi.sourceforge.net/DTD/sodipodi-0.dtd"
   xmlns="http://www.w3.org/2000/svg"
   xmlns:svg="http://www.w3.org/2000/svg">
  <sodipodi:namedview
     id="namedview175"
     pagecolor="#ffffff"
     bordercolor="#000000"
     borderopacity="0.25"
     inkscape:showpageshadow="2"
     inkscape:pageopacity="0.0"
     inkscape:pagecheckerboard="0"
     inkscape:deskcolor="#d1d1d1"
     showgrid="false"
     inkscape:zoom="0.25511098"
     inkscape:cx="1734.5392"
     inkscape:cy="286.14998"
     inkscape:window-width="1920"
     inkscape:window-height="1009"
     inkscape:window-x="-8"
     inkscape:window-y="-8"
     inkscape:window-maximized="1"
     inkscape:current-layer="svg173" />
  <defs
     id="defs141">
    <clipPath
       clipPathUnits="userSpaceOnUse"
       id="cp1">
      <path
         d="m771 1000.5c-119.49 132.75-322.51 132.75-442 0-145.41-161.56-253.38-355.34-315.7-566.61-51.21-173.59 50.3-355.79 220.99-396.63 207.74-49.71 423.68-49.71 631.42 0 170.69 40.84 272.2 223.04 220.99 396.63-62.32 211.27-170.29 405.05-315.7 566.61z"
         id="path132" />
    </clipPath>
    <linearGradient
       id="P"
       gradientUnits="userSpaceOnUse" />
    <linearGradient
       id="g1"
       x1="137.5"
       y1="962.5"
       x2="962.5"
       y2="137.5"
       href="#P">
      <stop
         stop-color="#f22121"
         id="stop136"
         offset="0"
         style="stop-color:#00a36c;stop-opacity:1;" />
      <stop
         offset="1"
         stop-color="#fa611a"
         id="stop138" />
    </linearGradient>
  </defs>
  <style
     id="style143">.a{fill:url(#g1)}.b{fill:#fff}</style>
  <g
     clip-path="url(#cp1)"
     id="g149">
    <path
       class="a"
       d="m771 1000.5c-119.5 132.8-322.5 132.8-442 0-145.4-161.6-253.4-355.3-315.7-566.6-51.2-173.6 50.3-355.8 221-396.6 207.7-49.8 423.7-49.8 631.4 0 170.7 40.8 272.2 223 221 396.6-62.3 211.3-170.3 405-315.7 566.6z"
       id="path145" />
  </g>
  <text
     xml:space="preserve"
     style="font-weight:bold;font-size:620.795px;font-family:'Open Sans';-inkscape-font-specification:'Open Sans Bold';text-align:center;text-orientation:upright;text-anchor:middle;fill:#ffffff;stroke-width:8.02752"
     x="2569.1765"
     y="784.2627"
     id="text436"><tspan
       sodipodi:role="line"
       id="tspan434"
       x="2569.1765"
       y="784.2627"
       style="font-style:normal;font-variant:normal;font-weight:800;font-stretch:normal;font-family:'Open Sans';-inkscape-font-specification:'Open Sans Ultra-Bold';fill:#000000;stroke-width:8.02752">wiki<tspan
   style="fill:#00a36c;fill-opacity:1;stroke-width:8.02752"
   id="tspan1263">grid</tspan>.</tspan></text>
  <g
     id="g5120"
     transform="matrix(38.113255,0,0,38.113255,168.86745,121.87439)">
    <g
       fill="#ffffff"
       id="g4993">
      <path
         d="M 13,3 7,1 1,3 v 16 l 6,-2 6,2 6,-2 V 1 Z M 7,14.89 3,16.25 V 4.35 L 7,3 Z M 17,15.64 13,17 V 5.1 l 4,-1.36 z"
         id="path4991" />
    </g>
  </g>
</svg>
